<svg width="256" height="256" viewBox="0 0 256 256" fill="none" xmlns="http://www.w3.org/2000/svg">
<g id="click 1">
<g id="Group">
<path id="Vector" d="M196.769 123.074H195.507C192.725 123.074 190.084 123.687 187.712 124.785C185.911 116.383 178.428 110.067 169.501 110.067H168.236C165.047 110.067 162.043 110.873 159.416 112.292C156.6 105.571 149.954 100.839 142.224 100.839H140.965C138.341 100.839 135.845 101.384 133.581 102.364V75.6244C133.581 65.3539 125.224 56.9998 114.953 56.9998H113.691C103.421 56.9998 95.0667 65.3567 95.0667 75.6244V144.121L86.5749 150.567C79.8224 155.693 75.54 163.153 74.52 171.572C73.4999 179.985 75.8744 188.249 81.205 194.836L107.684 227.57V240.588C107.684 248.453 114.082 254.852 121.947 254.852H188.033C195.898 254.852 202.296 248.453 202.296 240.588L202.299 228.23C210.757 217.602 215.391 204.412 215.391 190.857V141.702C215.394 131.428 207.04 123.074 196.769 123.074ZM204.154 190.86C204.154 202.445 199.984 213.702 192.408 222.559C191.534 223.577 191.059 224.872 191.059 226.212V240.591C191.059 242.26 189.705 243.615 188.036 243.615H121.95C120.284 243.615 118.926 242.26 118.926 240.591V225.583C118.926 224.296 118.485 223.051 117.676 222.048L89.9469 187.769C86.5468 183.565 85.0294 178.293 85.6813 172.923C86.3332 167.554 89.0645 162.796 93.3723 159.52L95.0695 158.233V173.797C95.0695 176.9 97.5873 179.417 100.69 179.417C103.792 179.417 106.31 176.9 106.31 173.797V146.97C106.31 146.928 106.31 146.889 106.31 146.847V75.6272C106.31 71.5556 109.622 68.2426 113.694 68.2426H114.956C119.028 68.2426 122.341 71.5556 122.341 75.6272V119.466C122.341 119.466 122.341 119.466 122.341 119.469C122.341 119.472 122.341 119.469 122.341 119.472L122.366 155.934C122.369 159.036 124.884 161.551 127.986 161.551H127.989C131.094 161.549 133.609 159.034 133.606 155.929L133.578 119.494C133.578 119.486 133.581 119.477 133.581 119.466C133.581 115.394 136.894 112.081 140.965 112.081H142.224C146.296 112.081 149.612 115.394 149.612 119.466V128.697V128.7V128.703L149.637 155.937C149.64 159.039 152.155 161.551 155.257 161.551C155.26 161.551 155.26 161.551 155.263 161.551C158.365 161.549 160.88 159.031 160.877 155.926L160.852 128.697C160.852 124.625 164.165 121.312 168.236 121.312H169.498C173.57 121.312 176.883 124.625 176.883 128.697V140.238C176.866 140.423 176.826 140.603 176.826 140.791L176.855 155.943C176.86 159.045 179.375 161.551 182.475 161.551C182.477 161.551 182.48 161.551 182.486 161.551C185.588 161.546 188.1 159.025 188.095 155.92L188.069 142.221C188.086 142.047 188.123 141.881 188.123 141.704C188.123 137.633 191.436 134.32 195.507 134.32H196.769C200.841 134.32 204.154 137.633 204.154 141.704V190.86V190.86Z" fill="#13BFE4"/>
<path id="Vector_2" d="M81.4916 96.5898C79.6146 96.5898 77.7796 95.6513 76.7146 93.94C72.4519 87.092 70.1982 79.1903 70.1982 71.0919C70.1982 47.2209 89.6182 27.801 113.489 27.801C137.36 27.801 156.78 47.2209 156.78 71.0919C156.78 75.2591 156.187 79.3814 155.021 83.3463C154.141 86.3277 151.011 88.0334 148.041 87.151C145.062 86.2743 143.362 83.1496 144.236 80.1738C145.102 77.2402 145.54 74.1857 145.54 71.0947C145.54 53.4198 131.164 39.0438 113.489 39.0438C95.8142 39.0438 81.4382 53.4226 81.4382 71.0947C81.4382 77.094 83.1046 82.9417 86.2546 88.0025C87.8956 90.6382 87.0892 94.103 84.4534 95.744C83.5317 96.3144 82.5032 96.5898 81.4916 96.5898Z" fill="#13BFE4"/>
<path id="Vector_3" d="M77.9735 129.377C76.8916 129.377 75.7985 129.065 74.8319 128.413C55.7492 115.521 44.3546 94.0917 44.3546 71.089C44.3546 32.9686 75.3686 1.95459 113.489 1.95459C151.61 1.95459 182.623 32.9686 182.623 71.089C182.623 79.8084 181.019 88.3143 177.855 96.3678C176.72 99.2565 173.463 100.687 170.569 99.5431C167.68 98.4078 166.258 95.1482 167.393 92.2568C170.04 85.5184 171.383 78.395 171.383 71.089C171.383 39.1674 145.413 13.1946 113.489 13.1946C81.5674 13.1946 55.5946 39.1674 55.5946 71.089C55.5946 90.3516 65.1374 108.299 81.1235 119.098C83.6974 120.834 84.3718 124.33 82.6352 126.901C81.5506 128.509 79.7775 129.377 77.9735 129.377Z" fill="#13BFE4"/>
</g>
</g>
</svg>
